# xmcd
#
# Track frame offsets: 
#        150
#        15652
#        26730
#        46287
#        60090
#        71925
#        87842
#        103722
#        113327
#        125297
#        137205
#        152045
#        163827
#        177360
#
# Disc length: 2601 seconds
#
# Revision: 2
# Processed by: cddbd v1.5.2PL0 Copyright (c) Steve Scherf et al.
# Submitted via: ExactAudioCopyFreeDBPlugin 1.0
#
DISCID=b30a270e
DTITLE=Various Artist - The Sound of Philadelphia [Goldies]
DYEAR=2001
DGENRE=Soul
TTITLE0=Harold Melvin and The Blue Notes - Bad Luck
TTITLE1=The O'Jays - One Night Affair
TTITLE2=The Three Degrees - Dirty Ol' Man
TTITLE3=People's Choice - Do It Any Way You Wanna
TTITLE4=Jerry Butler - Only the Strong Survive
TTITLE5=Harold Melvin and The Blue Notes - If You Don't Know  Me By Now
TTITLE6=Patti LaBelle and The Blue Belles - Down the  Aisle
TTITLE7=The O'Jays - I Can't Get Enough
TTITLE8=Dee Dee Sharp - Mashed Potato Time
TTITLE9=The Three Degrees - Year of Decision
TTITLE10=Harold Melvin and The Blue Notes - Satisfaction Guaranteed
TTITLE11=The O'Jays - Let Me in Your World
TTITLE12=Patti LaBelle and The Blue Belles - Have I Sinned
TTITLE13=The Trammps - Hold Back the Night
EXTD=
EXTT0=
EXTT1=
EXTT2=
EXTT3=
EXTT4=
EXTT5=
EXTT6=
EXTT7=
EXTT8=
EXTT9=
EXTT10=
EXTT11=
EXTT12=
EXTT13=
PLAYORDER=
